<?xml version="1.0" encoding="iso-8859-1"?>
<!-- Generator: Adobe Illustrator 19.0.0, SVG Export Plug-In . SVG Version: 6.00 Build 0)  -->
<svg version="1.1" id="Layer_1" xmlns="http://www.w3.org/2000/svg" xmlns:xlink="http://www.w3.org/1999/xlink" x="0px" y="0px"
	 viewBox="0 0 512 512" style="enable-background:new 0 0 512 512;" xml:space="preserve">
<g>
	<g>
		<path d="M435.591,212.353c-37.704-30.284-82.196-50.542-128.792-59.142c6.133-9.394,9.712-20.6,9.712-32.631
			c0-32.419-18.362-74.822-59.385-96.473c-5.999-3.166-13.318-2.38-18.506,1.991c-5.187,4.37-7.208,11.448-5.108,17.898
			c0.003,0.011,0.202,1.391-1.67,5.217c-2.395,4.895-6.682,10.789-11.221,17.03C209.995,80.855,196.77,99.04,196.77,120.58
			c0,11.939,3.527,23.065,9.574,32.414c-47.094,8.486-92.059,28.876-130.085,59.484C28.509,250.915,0,299.435,0,342.272
			c0,13.439,9.199,26.226,14.636,31.663l12.019,12.019l9.293,66.378c2.992,21.372,21.521,37.487,43.101,37.487h355.188
			c21.58,0,40.109-16.117,43.101-37.487l9.501-67.869l10.528-10.528c5.434-5.437,14.633-18.223,14.633-31.663
			C512,299.35,483.436,250.782,435.591,212.353z M247.566,85.838c4.332-5.957,8.886-12.219,12.483-18.776
			c17.841,17.661,23.148,40.498,23.148,53.518c0,14.643-11.913,26.555-26.555,26.555s-26.555-11.913-26.555-26.555
			C230.086,109.873,238.972,97.655,247.566,85.838z M444.343,447.712c-0.702,5.012-5.046,8.791-10.108,8.791H79.048
			c-5.061,0-9.406-3.779-10.108-8.792l-5.844-41.744c14.341,1.265,28.903-3.543,39.8-14.44c6.508-6.508,17.043-6.509,23.552,0
			c9.428,9.429,21.974,14.635,35.333,14.635c13.348,0,25.896-5.198,35.334-14.635c6.504-6.504,17.04-6.513,23.552,0
			c9.438,9.438,21.986,14.635,35.333,14.635s25.895-5.197,35.333-14.635c6.515-6.514,17.055-6.496,23.553,0
			c19.527,19.528,51.136,19.531,70.666,0c6.334-6.333,16.889-6.662,23.552,0c11.097,11.099,26.21,16.013,41.102,14.309
			L444.343,447.712z M473.807,350.376l-17.595,17.594c-6.51,6.51-17.045,6.508-23.552,0c-19.759-19.76-51.391-19.276-70.666,0
			c-6.508,6.508-17.043,6.51-23.552,0c-9.438-9.438-21.986-14.635-35.333-14.635s-25.896,5.197-35.333,14.635
			c-3.146,3.146-7.328,4.877-11.776,4.877c-4.449,0-8.631-1.732-11.776-4.877c-19.497-19.497-51.136-19.53-70.667,0
			c-3.146,3.146-7.327,4.878-11.776,4.878c-4.448,0-8.63-1.732-11.776-4.877c-19.527-19.528-51.135-19.532-70.666,0
			c-6.498,6.496-17.032,6.521-23.554-0.002l-17.591-17.59c-2.344-2.345-4.582-6.637-4.878-8.329
			c0.11-32.318,24.548-71.999,63.83-103.619c45.338-36.493,101.752-56.591,158.851-56.591c57.005,0,113.377,20.061,158.728,56.488
			c39.368,31.62,63.854,71.349,63.956,103.741C478.402,343.737,476.165,348.019,473.807,350.376z"/>
	</g>
</g>
<g>
	<g>
		<path d="M256.641,199.302c-30.008,0-40.607,53.075-40.607,66.639c0,22.39,18.217,40.607,40.607,40.607
			c22.391,0,40.607-18.217,40.607-40.607C297.248,252.377,286.649,199.302,256.641,199.302z M256.641,273.231
			c-4.02,0-7.292-3.272-7.292-7.292c0-6.589,3.584-19.031,7.292-27.226c3.708,8.195,7.292,20.638,7.292,27.226
			C263.933,269.961,260.661,273.231,256.641,273.231z"/>
	</g>
</g>
<g>
	<g>
		<path d="M386.49,233.552c-8.235-8.235-33.168-23.598-51.465-23.598c-9.54,0-15.447,3.903-18.722,7.178
			c-9.03,9.028-9.56,23.045-1.578,41.658c4.73,11.029,11.961,22.494,17.997,28.53c14.86,14.858,38.908,14.86,53.768,0
			C401.314,272.496,401.314,248.376,386.49,233.552z M362.933,263.763c-1.84,1.84-4.811,1.843-6.654,0
			c-3.053-3.053-7.524-10.531-10.552-17.221c6.685,3.002,14.083,7.444,17.206,10.566
			C364.768,258.943,364.768,261.928,362.933,263.763z"/>
	</g>
</g>
<g>
	<g>
		<path d="M196.813,217.133c-3.275-3.275-9.182-7.178-18.722-7.178c-18.296,0-43.23,15.362-51.466,23.598
			c-14.823,14.824-14.823,38.944,0,53.768c14.86,14.857,38.908,14.86,53.769-0.001c6.036-6.036,13.267-17.5,17.997-28.529
			C206.373,240.177,205.841,226.161,196.813,217.133z M156.838,263.762c-1.841,1.841-4.81,1.845-6.654,0
			c-1.836-1.833-1.836-4.818-0.001-6.653c3.12-3.12,10.514-7.56,17.205-10.563C164.36,253.234,159.89,260.71,156.838,263.762z"/>
	</g>
</g>
<g>
</g>
<g>
</g>
<g>
</g>
<g>
</g>
<g>
</g>
<g>
</g>
<g>
</g>
<g>
</g>
<g>
</g>
<g>
</g>
<g>
</g>
<g>
</g>
<g>
</g>
<g>
</g>
<g>
</g>
</svg>
