<?xml version="1.0" encoding="iso-8859-1"?>
<!-- Generator: Adobe Illustrator 19.0.0, SVG Export Plug-In . SVG Version: 6.00 Build 0)  -->
<svg version="1.1" id="Layer_1" xmlns="http://www.w3.org/2000/svg" xmlns:xlink="http://www.w3.org/1999/xlink" x="0px" y="0px"
	 viewBox="0 0 488 488" style="enable-background:new 0 0 488 488;" xml:space="preserve">
<g transform="translate(0 -540.36)">
	<g>
		<g>
			<path d="M487.586,1005.96L487.586,1005.96l-50.704-182.1v-263.8c0-5.5-4.5-10-10.001-10H61.05c-5.5,0-10.001,4.5-10.001,10v263.8
				l-50.704,182.1c-0.8,3-0.2,6.2,1.7,8.7c1.9,2.5,4.8,4,8.001,4h468.04c3.1,0,6.101-1.5,8.001-4
				C487.886,1012.16,488.487,1008.96,487.586,1005.96z M71.051,570.06h345.929v245.1H71.051V570.06z M23.147,998.56l45.504-163.4
				h350.73l45.504,163.4H23.147z"/>
			<path d="M386.578,591.36H101.454c-5.5,0-10.001,4.5-10.001,10v183.4c0,5.5,4.5,10,10.001,10h285.024
				c5.601,0,10.001-4.5,10.101-10v-183.4C396.579,595.86,392.078,591.36,386.578,591.36z M376.577,774.76H111.455v-163.4h265.122
				V774.76z"/>
			<path d="M299.171,934.06c-1.5-3.9-5.2-6.5-9.401-6.5h-91.508c-4.2,0-7.901,2.6-9.401,6.5l-15.201,40.5c-1.2,3.1-0.8,6.5,1.1,9.2
				c1.8,2.7,4.9,4.3,8.201,4.3h122.01c3.3,0,6.301-1.6,8.301-4.3c1.8-2.7,2.3-6.1,1.1-9.2L299.171,934.06z M197.462,968.06
				l7.801-20.5h77.607l7.701,20.5H197.462z"/>
			<path d="M400.679,852.86c-1.3-4.2-5.2-7.1-9.601-7.1H96.053c-4.4,0-8.401,2.9-9.601,7.2l-14.501,49.7c-0.9,3-0.3,6.3,1.6,8.8
				s4.9,4,8.001,4l324.828,1.5c3.1,0,6.101-1.5,7.901-4c1.9-2.6,2.5-5.9,1.6-8.9L400.679,852.86z M94.953,895.56l8.701-29.7h280.024
				l9.301,31.1L94.953,895.56z"/>
		</g>
	</g>
</g>
<g>
</g>
<g>
</g>
<g>
</g>
<g>
</g>
<g>
</g>
<g>
</g>
<g>
</g>
<g>
</g>
<g>
</g>
<g>
</g>
<g>
</g>
<g>
</g>
<g>
</g>
<g>
</g>
<g>
</g>
</svg>
