<?xml version="1.0" encoding="iso-8859-1"?>
<!-- Generator: Adobe Illustrator 18.0.0, SVG Export Plug-In . SVG Version: 6.00 Build 0)  -->
<!DOCTYPE svg PUBLIC "-//W3C//DTD SVG 1.1//EN" "http://www.w3.org/Graphics/SVG/1.1/DTD/svg11.dtd">
<svg version="1.1" id="Capa_1" xmlns="http://www.w3.org/2000/svg" xmlns:xlink="http://www.w3.org/1999/xlink" x="0px" y="0px"
	 viewBox="0 0 297 297" style="enable-background:new 0 0 297 297;" xml:space="preserve">
<path d="M212.875,185.5H189.5v-22.801c5-5.98,8.985-12.557,12.269-19.154c1.3-0.232,2.779-0.658,4.072-1.275
	c5.942-2.839,11.418-9.757,14.506-18.506c3.359-9.524,3.207-18.342,0.04-24.199c0.572-0.759,1.153-1.557,1.688-2.406
	c6.153-9.779,7.402-22.504,3.688-37.822c-7.151-29.498-24.789-49.628-49.674-56.68c-26.717-7.57-58.857,1.401-79.983,22.328
	c-27.007,26.754-52.909,83.05-53.998,85.434c-0.893,1.952-0.913,4.192-0.056,6.16c0.855,1.969,2.509,3.481,4.544,4.16
	c5.214,1.737,10.778,2.604,16.692,2.604c4.104,0,8.376-0.425,12.81-1.259c2.242,5.694,6.348,12.99,9.743,16.271
	c3.047,2.944,6.411,4.725,9.743,5.238c3.519,7.063,7.918,14.095,12.918,20.396V185.5H84.791c-28.641,0-52.291,23.977-52.291,52.617
	v26.726c0,2.934,1.871,5.602,4.526,6.847C78.19,291.014,117.09,297.001,149.388,297c17.001,0,32.244-1.66,45.023-3.906
	c40.247-7.075,65.313-21.064,66.367-21.656c2.383-1.34,3.722-3.861,3.722-6.595v-26.726C264.5,209.476,241.516,185.5,212.875,185.5z
	 M148.531,218.522l-27.608-19.376c1.612-1.387,2.577-3.111,2.577-5.405v-15.133c7,5.41,15.853,8.776,24.994,8.776
	c9.545,0,18.006-3.668,26.006-9.509v15.865c0,1.957,1.027,4.062,2.247,5.405L148.531,218.522z M137.566,229.333l-19.436,12.635
	l-3.946-28.805L137.566,229.333z M182.879,213.163l-3.946,28.805l-19.437-12.635L182.879,213.163z M60.021,108.074
	c8.272-16.7,27.649-53.438,46.733-72.343c17.371-17.207,43.579-24.648,65.214-18.521c13.729,3.891,31.656,14.976,39.103,45.689
	c2.684,11.07,2.127,19.815-1.652,25.996c-1.126,1.841-2.446,3.291-3.764,4.426c-3.175-11.106-10.486-28.439-26.454-37.561
	c2.081-2.092,3.296-3.377,3.487-3.58c2.861-3.043,2.716-7.83-0.327-10.692c-3.043-2.862-7.83-2.718-10.692,0.327
	C152.364,62.34,97.585,110.834,60.021,108.074z M102.382,128.26c-1.622-0.508-3.352-0.451-4.92,0.135
	c-1.2-0.803-4.27-5.477-6.358-10.498c13.753-4.994,28.824-13.415,45.143-25.253c12.316-8.935,23.173-18.259,31.289-25.704
	c21.117,8.065,25.296,38.197,25.335,38.492c0.265,2.102,1.398,3.994,3.123,5.219c1.727,1.227,3.886,1.677,5.956,1.233
	c0.528-0.112,2.78-0.643,5.759-2.038c0.074,2.125-0.238,5.185-1.543,8.885c-2.034,5.764-4.972,8.809-6.313,9.688
	c-1.563-0.514-3.262-0.508-4.838,0.039c-1.979,0.686-3.586,2.16-4.436,4.075c-8.143,18.325-23.964,39.724-41.747,39.724
	c-17.822,0-33.654-21.463-41.796-39.843C106.153,130.424,104.458,128.911,102.382,128.26z M47.5,238.117
	c0-20.299,16.993-37.617,37.291-37.617h12.498l7.472,54.933c0.352,2.565,1.991,4.974,4.348,6.053
	c1.002,0.459,2.076,0.786,3.146,0.786c1.441,0,2.745-0.361,3.991-1.172l24.255-15.802v36.409c-28-0.971-59-6.688-93-21.718V238.117z
	 M249.5,260.212c-8,3.944-28.998,12.892-57.954,17.982c-10.399,1.828-23.046,3.237-36.046,3.587v-36.747l24.99,16.115
	c1.245,0.811,2.779,1.223,4.221,1.223c1.069,0,2.192-0.227,3.195-0.686c2.355-1.079,4.02-3.689,4.371-6.254l7.496-54.933h13.102
	c20.298,0,36.625,17.318,36.625,37.617V260.212z"/>
<g>
</g>
<g>
</g>
<g>
</g>
<g>
</g>
<g>
</g>
<g>
</g>
<g>
</g>
<g>
</g>
<g>
</g>
<g>
</g>
<g>
</g>
<g>
</g>
<g>
</g>
<g>
</g>
<g>
</g>
</svg>
