<?xml version="1.0" encoding="iso-8859-1"?>
<!-- Generator: Adobe Illustrator 18.0.0, SVG Export Plug-In . SVG Version: 6.00 Build 0)  -->
<!DOCTYPE svg PUBLIC "-//W3C//DTD SVG 1.1//EN" "http://www.w3.org/Graphics/SVG/1.1/DTD/svg11.dtd">
<svg version="1.1" id="Capa_1" xmlns="http://www.w3.org/2000/svg" xmlns:xlink="http://www.w3.org/1999/xlink" x="0px" y="0px"
	 viewBox="0 0 402.851 402.851" style="enable-background:new 0 0 402.851 402.851;" xml:space="preserve">
<g>
	<path d="M392.851,268.996h-20.406c-16.473-11.686-34.422-20.672-53.514-26.806c1.705-5.79,2.592-11.833,2.592-17.897
		c0-26.258-16.108-48.819-38.958-58.338l20.382-28.266c3.012-4.176,2.359-9.957-1.507-13.357l-21.373-18.8
		c-1.825-1.606-4.173-2.491-6.604-2.491h-30.226c-2.432,0-4.78,0.886-6.606,2.493l-21.365,18.8
		c-3.864,3.401-4.516,9.18-1.505,13.356l20.382,28.266c-22.851,9.519-38.959,32.079-38.959,58.338
		c0,6.064,0.887,12.107,2.592,17.897c-19.095,6.135-37.042,15.121-53.514,26.805h-10.406V10c0-5.523-4.478-10-10-10H82.416
		C36.972,0,0,36.972,0,82.415v124.166c0,45.444,36.972,82.415,82.416,82.415h31.438v81.906c0,17.616,14.332,31.948,31.948,31.948
		h225.1c17.616,0,31.948-14.332,31.948-31.948v-91.906C402.851,273.474,398.373,268.996,392.851,268.996z M235.29,133.354
		l11.72-10.312h22.68l11.726,10.314l-20.079,27.844c-0.989-0.046-1.983-0.076-2.984-0.076s-1.994,0.029-2.984,0.076L235.29,133.354z
		 M258.353,181.124c23.804,0,43.17,19.366,43.17,43.17c0,4.393-0.639,8.656-1.903,12.743c-2.31-0.492-4.628-0.949-6.956-1.357
		c1.214-3.644,1.86-7.486,1.86-11.386c0-19.944-16.226-36.17-36.17-36.17s-36.17,16.226-36.17,36.17c0,3.9,0.646,7.742,1.859,11.386
		c-2.328,0.409-4.647,0.865-6.956,1.357c-1.264-4.087-1.903-8.35-1.903-12.743C215.183,200.49,234.549,181.124,258.353,181.124z
		 M244.855,233.168c-1.73-2.61-2.673-5.654-2.673-8.875c0-8.916,7.254-16.17,16.17-16.17s16.17,7.254,16.17,16.17
		c0,3.221-0.942,6.264-2.672,8.875C262.896,232.565,253.799,232.565,244.855,233.168z M213.633,258.393
		c9.121-2.376,18.515-4.024,27.928-4.901c11.076-1.043,22.499-1.044,33.595,0.001c9.403,0.876,18.796,2.525,27.926,4.903
		c10.236,2.656,20.134,6.206,29.646,10.601H183.978C193.492,264.601,203.393,261.05,213.633,258.393z M20,206.581V82.415
		C20,48,48,20,82.416,20h31.438v248.996H82.416C48,268.996,20,240.997,20,206.581z M382.851,370.902
		c0,6.588-5.36,11.948-11.948,11.948h-225.1c-6.588,0-11.948-5.36-11.948-11.948v-81.906h248.996V370.902z"/>
	<path d="M258.353,81.044c5.522,0,10-4.477,10-10v-34.5c0-5.523-4.478-10-10-10s-10,4.477-10,10v34.5
		C248.353,76.567,252.83,81.044,258.353,81.044z"/>
	<path d="M308.583,101.854c2.56,0,5.118-0.976,7.071-2.929l24.399-24.4c3.905-3.905,3.905-10.237,0-14.142
		c-3.906-3.905-10.236-3.905-14.143,0l-24.399,24.4c-3.905,3.905-3.905,10.237,0,14.142
		C303.465,100.877,306.023,101.854,308.583,101.854z"/>
	<path d="M201.052,98.925c1.953,1.953,4.512,2.929,7.071,2.929s5.118-0.976,7.071-2.929c3.905-3.905,3.905-10.237,0-14.142
		l-24.4-24.4c-3.906-3.905-10.236-3.905-14.143,0c-3.905,3.905-3.905,10.237,0,14.142L201.052,98.925z"/>
</g>
<g>
</g>
<g>
</g>
<g>
</g>
<g>
</g>
<g>
</g>
<g>
</g>
<g>
</g>
<g>
</g>
<g>
</g>
<g>
</g>
<g>
</g>
<g>
</g>
<g>
</g>
<g>
</g>
<g>
</g>
</svg>
