<?xml version="1.0" encoding="iso-8859-1"?>
<!-- Generator: Adobe Illustrator 19.0.0, SVG Export Plug-In . SVG Version: 6.00 Build 0)  -->
<svg version="1.1" id="Layer_1" xmlns="http://www.w3.org/2000/svg" xmlns:xlink="http://www.w3.org/1999/xlink" x="0px" y="0px"
	 viewBox="0 0 512 512" style="enable-background:new 0 0 512 512;" xml:space="preserve">
<g>
	<g>
		<g>
			<path d="M240.195,126.114c-71.62,0-129.886,58.267-129.886,129.886s58.267,129.886,129.886,129.886
				c34.553,0,67.096-13.465,91.635-37.917c3.163-3.152,3.171-8.27,0.021-11.432c-3.151-3.165-8.27-3.172-11.433-0.02
				c-21.488,21.41-49.978,33.201-80.222,33.201c-62.704,0-113.718-51.014-113.718-113.718s51.014-113.718,113.718-113.718
				c62.704,0,113.718,51.014,113.718,113.718c0,22.794-6.75,44.801-19.518,63.639c-2.505,3.696-1.54,8.722,2.156,11.227
				c3.695,2.505,8.722,1.539,11.227-2.156c14.591-21.527,22.304-46.67,22.304-72.71C370.081,184.38,311.814,126.114,240.195,126.114
				z"/>
			<path d="M413.009,224.481h-13.675c-6.638-33.575-23.663-63.46-47.584-86.15V78.964V21.019C351.75,9.429,342.321,0,330.732,0
				H149.656c-11.59,0-21.019,9.429-21.019,21.019v57.945v59.369C97.451,167.916,77.972,209.725,77.972,256
				s19.48,88.084,50.665,117.666v59.369v57.945c0,11.59,9.429,21.019,21.019,21.019h181.076c11.59,0,21.019-9.429,21.019-21.019
				v-57.945v-59.368c23.921-22.69,40.946-52.574,47.584-86.15h13.675c11.59,0,21.019-9.429,21.019-21.019V245.5
				C434.028,233.911,424.599,224.481,413.009,224.481z M144.805,87.049h17.39c4.465,0,8.084-3.619,8.084-8.084
				s-3.62-8.084-8.084-8.084h-17.39V21.019c0-2.674,2.176-4.851,4.851-4.851h181.076c2.674,0,4.851,2.176,4.851,4.851V70.88H186.628
				c-4.465,0-8.084,3.619-8.084,8.084s3.62,8.084,8.084,8.084h148.954v37.806c-0.332-0.243-0.669-0.476-1.002-0.716
				c-0.315-0.226-0.631-0.453-0.947-0.677c-0.724-0.512-1.452-1.015-2.184-1.514c-0.275-0.188-0.548-0.378-0.825-0.565
				c-0.992-0.667-1.988-1.326-2.992-1.971c-0.194-0.125-0.391-0.245-0.585-0.368c-0.801-0.51-1.605-1.013-2.413-1.508
				c-0.437-0.267-0.877-0.528-1.316-0.792c-0.566-0.338-1.132-0.675-1.701-1.007c-0.513-0.299-1.028-0.595-1.546-0.888
				c-0.487-0.276-0.975-0.549-1.465-0.82c-0.575-0.319-1.15-0.637-1.729-0.95c-0.357-0.192-0.717-0.378-1.075-0.568
				c-2.402-1.271-4.839-2.482-7.309-3.635c-0.158-0.073-0.315-0.149-0.473-0.221c-0.863-0.399-1.73-0.789-2.602-1.173
				c-0.109-0.047-0.217-0.095-0.326-0.142c-13.211-5.789-27.333-9.867-42.09-11.952c-0.241-0.034-0.484-0.069-0.727-0.102
				c-0.847-0.115-1.696-0.226-2.546-0.329c-0.364-0.044-0.729-0.084-1.093-0.125c-0.826-0.094-1.65-0.188-2.479-0.269
				c-1.042-0.102-2.087-0.196-3.133-0.279c-0.536-0.042-1.074-0.074-1.611-0.112c-0.733-0.051-1.466-0.099-2.201-0.14
				c-0.507-0.028-1.014-0.052-1.523-0.075c-0.82-0.038-1.642-0.069-2.463-0.094c-0.424-0.013-0.847-0.028-1.272-0.038
				c-1.251-0.029-2.505-0.047-3.76-0.047c-1.255,0-2.508,0.018-3.76,0.047c-0.425,0.01-0.848,0.025-1.272,0.038
				c-0.822,0.025-1.643,0.056-2.463,0.094c-0.509,0.023-1.016,0.047-1.523,0.075c-0.732,0.041-1.463,0.089-2.194,0.139
				c-0.541,0.037-1.082,0.07-1.621,0.112c-0.938,0.074-1.872,0.159-2.807,0.25c-0.944,0.091-1.885,0.193-2.824,0.301
				c-0.354,0.041-0.707,0.079-1.061,0.122c-0.858,0.104-1.714,0.216-2.568,0.332c-0.234,0.032-0.467,0.065-0.701,0.098
				c-14.766,2.086-28.897,6.166-42.115,11.959c-0.101,0.044-0.204,0.089-0.305,0.134c-0.875,0.386-1.747,0.778-2.615,1.179
				c-0.154,0.071-0.307,0.144-0.461,0.216c-2.454,1.144-4.876,2.348-7.263,3.609c-0.38,0.202-0.763,0.4-1.143,0.604
				c-0.563,0.303-1.121,0.612-1.679,0.922c-0.511,0.284-1.022,0.568-1.531,0.857c-0.496,0.281-0.99,0.566-1.482,0.853
				c-0.603,0.351-1.203,0.707-1.801,1.066c-0.406,0.244-0.815,0.486-1.219,0.733c-0.902,0.552-1.8,1.112-2.693,1.683
				c-0.101,0.065-0.204,0.127-0.305,0.192c-1.03,0.661-2.052,1.337-3.069,2.022c-0.215,0.144-0.426,0.292-0.639,0.438
				c-0.803,0.547-1.602,1.101-2.396,1.662c-0.26,0.184-0.518,0.37-0.777,0.555c-0.367,0.263-0.737,0.522-1.103,0.788V87.049z
				 M335.582,490.981c0,2.674-2.176,4.851-4.851,4.851H149.656c-2.674,0-4.851-2.176-4.851-4.851V441.12h190.777V490.981z
				 M335.582,424.951H144.805v-37.806c0.366,0.267,0.738,0.527,1.107,0.791c0.257,0.183,0.512,0.368,0.77,0.55
				c0.798,0.565,1.6,1.12,2.407,1.67c0.21,0.143,0.418,0.289,0.628,0.431c1.018,0.687,2.042,1.362,3.074,2.025
				c0.094,0.06,0.189,0.117,0.282,0.177c0.901,0.576,1.807,1.141,2.717,1.698c0.399,0.245,0.802,0.483,1.204,0.724
				c0.604,0.361,1.207,0.721,1.815,1.075c0.489,0.286,0.981,0.567,1.475,0.847c0.512,0.291,1.026,0.578,1.541,0.862
				c0.555,0.308,1.11,0.615,1.67,0.917c0.386,0.207,0.774,0.409,1.161,0.613c2.378,1.257,4.789,2.455,7.235,3.595
				c0.16,0.074,0.319,0.15,0.48,0.224c0.866,0.4,1.734,0.791,2.607,1.176c0.103,0.045,0.207,0.091,0.31,0.136
				c13.216,5.793,27.344,9.871,42.107,11.957c0.237,0.033,0.475,0.068,0.713,0.1c0.85,0.116,1.702,0.227,2.557,0.331
				c0.358,0.043,0.717,0.082,1.075,0.123c0.937,0.107,1.874,0.209,2.815,0.3c0.935,0.091,1.87,0.176,2.807,0.25
				c0.539,0.042,1.081,0.075,1.621,0.112c0.731,0.051,1.462,0.099,2.194,0.139c0.507,0.028,1.015,0.052,1.523,0.075
				c0.82,0.038,1.642,0.068,2.463,0.094c0.424,0.013,0.847,0.028,1.272,0.038c1.251,0.029,2.505,0.047,3.76,0.047
				c1.255,0,2.508-0.019,3.76-0.047c0.425-0.01,0.848-0.025,1.272-0.038c0.822-0.026,1.643-0.056,2.463-0.094
				c0.508-0.024,1.015-0.047,1.523-0.075c0.735-0.041,1.468-0.089,2.201-0.14c0.537-0.037,1.076-0.069,1.611-0.112
				c1.047-0.083,2.091-0.176,3.133-0.279c0.829-0.081,1.654-0.175,2.479-0.269c0.364-0.042,0.729-0.081,1.093-0.125
				c0.852-0.102,1.7-0.213,2.546-0.329c0.243-0.033,0.485-0.068,0.727-0.102c14.757-2.086,28.88-6.163,42.092-11.953
				c0.107-0.046,0.213-0.094,0.32-0.14c0.872-0.384,1.74-0.775,2.603-1.174c0.16-0.073,0.319-0.15,0.479-0.224
				c2.467-1.15,4.902-2.361,7.301-3.629c0.36-0.191,0.721-0.377,1.079-0.57c0.578-0.312,1.151-0.628,1.725-0.946
				c0.493-0.273,0.984-0.546,1.474-0.825c0.514-0.292,1.026-0.586,1.537-0.884c0.572-0.333,1.143-0.673,1.712-1.013
				c0.435-0.261,0.873-0.521,1.306-0.786c0.816-0.499,1.627-1.007,2.434-1.521c0.188-0.12,0.378-0.235,0.566-0.356
				c1.006-0.646,2.004-1.305,2.997-1.975c0.273-0.184,0.542-0.372,0.814-0.557c0.735-0.501,1.467-1.008,2.195-1.522
				c0.315-0.222,0.627-0.446,0.94-0.672c0.336-0.242,0.675-0.477,1.008-0.72V424.951z M386.158,261.009
				c-0.013,0.383-0.028,0.764-0.044,1.146c-0.14,3.356-0.395,6.706-0.763,10.034c-0.039,0.349-0.079,0.697-0.12,1.046
				c-0.196,1.664-0.412,3.324-0.664,4.973c-0.001,0.004-0.001,0.008-0.001,0.012c-5.19,33.833-22.028,63.878-46.276,85.899
				c-0.017,0.016-0.038,0.028-0.056,0.043c-4.987,4.526-10.247,8.673-15.735,12.429c-0.081,0.055-0.16,0.112-0.24,0.167
				c-0.817,0.556-1.641,1.102-2.467,1.642c-0.123,0.081-0.246,0.163-0.369,0.244c-0.814,0.528-1.634,1.044-2.458,1.555
				c-0.136,0.084-0.271,0.17-0.406,0.254c-0.83,0.511-1.664,1.011-2.503,1.505c-0.128,0.075-0.257,0.152-0.385,0.227
				c-0.858,0.501-1.721,0.993-2.588,1.476c-0.107,0.059-0.212,0.12-0.319,0.179c-0.898,0.497-1.8,0.984-2.707,1.462
				c-0.071,0.038-0.142,0.076-0.212,0.112c-0.946,0.496-1.897,0.982-2.852,1.456c-0.026,0.013-0.051,0.025-0.077,0.038
				c-12.963,6.429-26.829,10.898-41.167,13.24c-0.008,0.001-0.015,0.002-0.023,0.004c-1.02,0.166-2.042,0.319-3.066,0.465
				c-0.155,0.022-0.31,0.044-0.467,0.066c-0.917,0.126-1.836,0.244-2.756,0.352c-0.278,0.032-0.556,0.065-0.834,0.096
				c-0.825,0.093-1.65,0.18-2.477,0.259c-0.396,0.038-0.793,0.071-1.19,0.106c-0.733,0.064-1.465,0.126-2.2,0.179
				c-0.516,0.037-1.036,0.067-1.554,0.099c-0.635,0.039-1.269,0.08-1.904,0.11c-0.678,0.032-1.359,0.055-2.04,0.078
				c-0.492,0.017-0.982,0.039-1.473,0.052c-1.187,0.028-2.376,0.045-3.569,0.045c-1.193,0-2.382-0.017-3.569-0.045
				c-0.493-0.012-0.983-0.034-1.475-0.052c-0.68-0.023-1.36-0.045-2.038-0.078c-0.636-0.031-1.272-0.071-1.907-0.11
				c-0.517-0.031-1.035-0.061-1.551-0.099c-0.735-0.053-1.469-0.114-2.203-0.179c-0.396-0.035-0.791-0.068-1.186-0.106
				c-0.829-0.079-1.657-0.166-2.482-0.26c-0.276-0.031-0.551-0.063-0.827-0.095c-0.923-0.11-1.844-0.226-2.763-0.354
				c-0.153-0.022-0.306-0.043-0.458-0.065c-1.027-0.146-2.052-0.299-3.074-0.466c-0.003-0.001-0.008-0.001-0.011-0.002
				c-14.336-2.341-28.2-6.808-41.162-13.234c-0.036-0.017-0.071-0.036-0.106-0.053c-0.944-0.469-1.884-0.95-2.82-1.44
				c-0.085-0.045-0.17-0.091-0.255-0.135c-0.892-0.47-1.78-0.949-2.662-1.438c-0.125-0.069-0.249-0.14-0.374-0.209
				c-0.847-0.472-1.691-0.953-2.531-1.442c-0.154-0.091-0.307-0.182-0.461-0.274c-0.812-0.477-1.619-0.961-2.422-1.455
				c-0.174-0.107-0.345-0.216-0.517-0.323c-0.786-0.488-1.569-0.981-2.347-1.484c-0.172-0.111-0.342-0.226-0.513-0.338
				c-0.777-0.508-1.551-1.02-2.319-1.542c-0.15-0.102-0.298-0.208-0.447-0.31c-0.789-0.542-1.577-1.089-2.356-1.647
				c-0.079-0.057-0.157-0.115-0.236-0.172c-4.494-3.23-8.826-6.728-12.969-10.488c-0.011-0.01-0.023-0.017-0.033-0.026
				C112.667,337.396,94.142,298.82,94.142,256s18.524-81.396,47.978-108.135c0.011-0.01,0.024-0.017,0.034-0.027
				c4.144-3.76,8.477-7.257,12.97-10.488c0.079-0.056,0.156-0.115,0.235-0.171c0.787-0.563,1.58-1.115,2.376-1.661
				c0.141-0.097,0.281-0.197,0.424-0.294c0.774-0.527,1.554-1.043,2.337-1.554c0.166-0.109,0.33-0.219,0.497-0.327
				c0.78-0.506,1.566-1,2.355-1.49c0.17-0.106,0.338-0.213,0.509-0.318c0.804-0.495,1.614-0.98,2.426-1.458
				c0.153-0.091,0.305-0.181,0.458-0.271c0.841-0.49,1.686-0.971,2.535-1.445c0.123-0.069,0.246-0.138,0.369-0.206
				c0.886-0.49,1.776-0.971,2.671-1.442c0.082-0.043,0.164-0.087,0.246-0.13c0.938-0.492,1.881-0.973,2.828-1.444
				c0.032-0.016,0.065-0.032,0.097-0.049c12.963-6.427,26.828-10.895,41.166-13.237c0.003-0.001,0.008-0.001,0.011-0.002
				c1.022-0.167,2.046-0.32,3.072-0.466c0.155-0.022,0.309-0.044,0.465-0.065c0.917-0.127,1.836-0.244,2.756-0.352
				c0.277-0.032,0.554-0.065,0.832-0.096c0.826-0.093,1.652-0.18,2.48-0.259c0.395-0.038,0.79-0.071,1.186-0.106
				c0.734-0.064,1.468-0.126,2.203-0.179c0.516-0.037,1.034-0.067,1.551-0.098c0.635-0.039,1.27-0.08,1.907-0.111
				c0.678-0.032,1.358-0.055,2.038-0.078c0.492-0.017,0.982-0.04,1.475-0.052c1.187-0.029,2.376-0.045,3.569-0.045
				s2.382,0.016,3.569,0.045c0.492,0.012,0.982,0.034,1.474,0.051c0.681,0.024,1.361,0.045,2.04,0.078
				c0.636,0.031,1.27,0.071,1.904,0.11c0.518,0.031,1.037,0.061,1.554,0.099c0.734,0.053,1.467,0.114,2.2,0.179
				c0.397,0.034,0.794,0.068,1.19,0.106c0.826,0.079,1.65,0.166,2.474,0.259c0.28,0.031,0.561,0.064,0.84,0.096
				c0.918,0.109,1.835,0.225,2.75,0.351c0.157,0.022,0.315,0.044,0.472,0.067c1.023,0.144,2.045,0.297,3.063,0.464
				c0.008,0.001,0.015,0.002,0.023,0.003c14.34,2.342,28.207,6.811,41.171,13.242c0.023,0.011,0.044,0.023,0.067,0.033
				c0.958,0.476,1.912,0.964,2.861,1.461c0.068,0.036,0.136,0.072,0.204,0.108c0.91,0.479,1.815,0.968,2.715,1.466
				c0.104,0.058,0.209,0.117,0.314,0.176c0.869,0.484,1.733,0.977,2.593,1.478c0.127,0.074,0.254,0.151,0.382,0.225
				c0.841,0.495,1.677,0.996,2.508,1.507c0.134,0.082,0.265,0.166,0.398,0.249c0.827,0.512,1.65,1.032,2.467,1.561
				c0.119,0.077,0.235,0.155,0.352,0.233c0.833,0.543,1.662,1.092,2.484,1.654c0.072,0.048,0.143,0.1,0.215,0.149
				c5.496,3.761,10.763,7.913,15.757,12.444c0.031,0.028,0.065,0.052,0.096,0.079c24.228,22.018,41.049,52.049,46.232,85.863
				c0,0.003,0,0.006,0.001,0.01c0.252,1.647,0.468,3.306,0.664,4.968c0.042,0.351,0.082,0.704,0.121,1.056
				c0.368,3.326,0.622,6.675,0.762,10.029c0.016,0.382,0.03,0.764,0.044,1.147c0.057,1.671,0.095,3.341,0.095,5.011
				C386.253,257.667,386.214,259.338,386.158,261.009z M413.009,271.349h-11.315c0.038-0.399,0.065-0.799,0.099-1.198
				c0.066-0.757,0.133-1.513,0.188-2.273c0.044-0.601,0.078-1.203,0.114-1.804c0.044-0.709,0.091-1.419,0.125-2.13
				c0.036-0.74,0.058-1.48,0.085-2.22c0.02-0.577,0.047-1.152,0.061-1.731c0.032-1.331,0.051-2.662,0.051-3.992
				c0-1.33-0.018-2.661-0.051-3.993c-0.014-0.577-0.041-1.149-0.061-1.724c-0.026-0.743-0.049-1.485-0.085-2.228
				c-0.034-0.709-0.082-1.415-0.125-2.122c-0.038-0.605-0.071-1.209-0.115-1.814c-0.055-0.756-0.121-1.508-0.186-2.26
				c-0.034-0.403-0.061-0.807-0.1-1.209h11.315c2.674,0,4.851,2.176,4.851,4.851v20.998h0.001
				C417.86,269.173,415.684,271.349,413.009,271.349z"/>
			<path d="M240.195,154.118c-4.465,0-8.084,3.618-8.084,8.084v72.123c-8.789,3.29-15.074,11.751-15.074,21.674
				c0,12.77,10.389,23.159,23.159,23.159c9.923,0,18.383-6.286,21.674-15.074h48.058c4.466,0,8.084-3.618,8.084-8.084
				c0-4.466-3.618-8.084-8.084-8.084h-48.058c-2.347-6.268-7.322-11.244-13.59-13.59v-72.123
				C248.279,157.738,244.659,154.118,240.195,154.118z M240.195,262.99c-3.855,0-6.99-3.136-6.99-6.99c0-3.855,3.136-6.99,6.99-6.99
				s6.99,3.136,6.99,6.99C247.185,259.855,244.049,262.99,240.195,262.99z"/>
		</g>
	</g>
</g>
<g>
</g>
<g>
</g>
<g>
</g>
<g>
</g>
<g>
</g>
<g>
</g>
<g>
</g>
<g>
</g>
<g>
</g>
<g>
</g>
<g>
</g>
<g>
</g>
<g>
</g>
<g>
</g>
<g>
</g>
</svg>
