<?xml version="1.0" encoding="iso-8859-1"?>
<!-- Generator: Adobe Illustrator 18.0.0, SVG Export Plug-In . SVG Version: 6.00 Build 0)  -->
<!DOCTYPE svg PUBLIC "-//W3C//DTD SVG 1.1//EN" "http://www.w3.org/Graphics/SVG/1.1/DTD/svg11.dtd">
<svg version="1.1" id="Capa_1" xmlns="http://www.w3.org/2000/svg" xmlns:xlink="http://www.w3.org/1999/xlink" x="0px" y="0px"
	 viewBox="0 0 465.621 465.621" style="enable-background:new 0 0 465.621 465.621;" xml:space="preserve">
<g>
	<path d="M381.081,317.048c-9.469-5.889-17.338-14.154-22.758-23.901c-5.416-9.747-8.278-20.794-8.278-31.948v-82.58
		c0-50.972-33.261-96.225-81.441-111.648l6.024-60.929c0.26-2.628-1.386-5.07-3.919-5.817c-2.534-0.747-5.24,0.414-6.446,2.762
		l-13.278,25.841L237.705,2.987c-0.941-1.833-2.83-2.986-4.892-2.986s-3.95,1.153-4.892,2.986l-13.278,25.841L201.365,2.987
		c-1.208-2.349-3.914-3.508-6.447-2.762c-2.534,0.747-4.179,3.189-3.918,5.817l6.025,60.933
		c-17.676,5.66-33.886,15.534-47.108,28.755c-22.138,22.139-34.331,51.576-34.331,82.889v82.58
		c0,22.891-11.605,43.769-31.043,55.848c-2.104,1.308-3.075,3.861-2.37,6.236c0.109,0.369,2.758,9.137,9.588,18.505
		c7.8,10.698,17.96,17.913,29.647,21.161c-1.272,4.574-1.966,9.386-1.966,14.36v82.811c0,3.038,2.462,5.5,5.5,5.5h215.752
		c3.037,0,5.5-2.462,5.5-5.5V377.31c0-4.965-0.692-9.77-1.96-14.337c29.5-8.092,38.808-38.321,39.214-39.69
		C384.153,320.909,383.183,318.356,381.081,317.048z M209.751,43.376c0.942,1.833,2.831,2.986,4.892,2.986s3.95-1.153,4.892-2.986
		l13.278-25.842l13.279,25.842c0.941,1.833,2.83,2.986,4.892,2.986s3.95-1.153,4.892-2.986l4.961-9.655l-4.887,49.425
		c-15.21,3.332-31.062,3.332-46.273,0l-4.887-49.426L209.751,43.376z M335.194,454.621H130.442V377.31
		c0-22.139,16.94-40.39,38.535-42.477v28.09c0,35.202,28.639,63.841,63.841,63.841s63.841-28.639,63.841-63.841v-28.089
		c21.596,2.092,38.535,20.341,38.535,42.477V454.621z M161.088,190.433c30.292-4.68,56.737-22.984,71.729-49.865
		c14.985,26.881,41.426,45.185,71.721,49.865v39.758c0,29.652-18.633,56.617-46.369,67.1c-8.092,3.065-16.625,4.619-25.362,4.619
		c-8.144,0-16.119-1.351-23.71-4.018c-28.715-10.048-48.009-37.255-48.009-67.702V190.433z M208.796,313.026l1.478-3.245
		c7.294,2.067,14.849,3.13,22.533,3.13c8.334,0,16.507-1.248,24.37-3.675l1.734,3.793c3.253,7.129,8.642,12.872,15.19,16.644
		c-0.627,1.07-0.979,2.3-0.979,3.547c0,1.84,0.75,3.65,2.05,4.95c1.311,1.3,3.11,2.05,4.95,2.05s3.65-0.75,4.95-2.05
		c0.212-0.214,0.404-0.445,0.586-0.683v25.436c0,29.137-23.704,52.841-52.841,52.841s-52.841-23.705-52.841-52.841v-25.062
		c0.246,0.364,0.524,0.707,0.836,1.019c1.3,1.3,3.11,2.05,4.95,2.05c1.84,0,3.65-0.75,4.95-2.05c1.3-1.3,2.05-3.11,2.05-4.95
		c0-1.167-0.303-2.321-0.856-3.341C199.221,326.866,205.266,320.764,208.796,313.026z M340.177,352.663
		c-8.946-17.229-26.947-29.034-47.664-29.034c-10.13,0-19.392-5.953-23.596-15.169l-1.444-3.161
		c28.972-13.406,48.064-42.877,48.064-75.108v-38.672c1.464,0.064,2.931,0.107,4.407,0.107c3.037,0,5.5-2.462,5.5-5.5
		s-2.463-5.5-5.5-5.5c-36.057,0-68.261-21.499-82.045-54.77c-0.852-2.055-2.856-3.395-5.08-3.395h-0.001
		c-2.224,0-4.229,1.339-5.081,3.394c-13.796,33.272-46.005,54.771-82.057,54.771c-3.038,0-5.5,2.462-5.5,5.5s2.462,5.5,5.5,5.5
		c1.476,0,2.943-0.044,4.406-0.107v38.672c0,33.101,19.779,62.875,49.785,75.888l-1.086,2.383
		c-4.204,9.213-13.465,15.166-23.594,15.166h-2.081c-20.711,0-38.707,11.802-47.652,29.029c-9.83-2.415-18.164-8.233-24.811-17.35
		c-3.167-4.344-5.268-8.555-6.507-11.431c20.398-14.377,32.443-37.483,32.443-62.679v-82.58c0-28.375,11.048-55.05,31.109-75.111
		c11.422-11.422,25.299-20.09,40.439-25.318l0.983,9.941c0.235,2.381,1.969,4.283,4.21,4.812c9.647,2.468,19.566,3.702,29.487,3.702
		c9.907,0,19.816-1.231,29.451-3.692c2.26-0.516,4.01-2.426,4.247-4.821l0.981-9.919c42.438,14.645,71.552,55.014,71.552,100.407
		v82.58c0,13.02,3.342,25.915,9.664,37.292c5.593,10.059,13.421,18.765,22.797,25.397
		C368.315,331.422,359.289,347.961,340.177,352.663z"/>
	<path d="M206.313,222.859c3.038,0,5.5-2.462,5.5-5.5v-20c0-3.038-2.462-5.5-5.5-5.5s-5.5,2.462-5.5,5.5v20
		C200.813,220.396,203.275,222.859,206.313,222.859z"/>
	<path d="M259.312,222.859c3.037,0,5.5-2.462,5.5-5.5v-20c0-3.038-2.463-5.5-5.5-5.5s-5.5,2.462-5.5,5.5v20
		C253.812,220.396,256.275,222.859,259.312,222.859z"/>
	<path d="M210.973,367.85c0.86,0.35,1.76,0.52,2.63,0.52c2.77,0,5.39-1.65,6.49-4.37c1.46-3.58-0.27-7.66-3.85-9.12
		c-3.58-1.45-7.67,0.27-9.12,3.85C205.673,362.32,207.393,366.4,210.973,367.85z"/>
	<path d="M192.063,355.4c1.36,1.34,3.13,2.01,4.91,2.01c1.81,0,3.61-0.7,4.98-2.09c2.72-2.75,2.69-7.18-0.07-9.89
		c-2.75-2.72-7.18-2.69-9.9,0.07C189.273,348.25,189.303,352.68,192.063,355.4z"/>
	<path d="M233.173,372.1c0.021,0,0.04,0,0.051,0c3.87-0.03,6.979-3.19,6.949-7.05c-0.02-3.87-3.18-6.98-7.05-6.95
		c-3.86,0.02-6.97,3.18-6.95,7.05C226.203,369,229.333,372.1,233.173,372.1z"/>
	<path d="M252.693,368.09c0.91,0,1.83-0.18,2.72-0.56c3.561-1.51,5.23-5.61,3.72-9.17c-1.51-3.56-5.609-5.23-9.17-3.72
		c-3.56,1.5-5.229,5.61-3.72,9.17C247.373,366.48,249.963,368.09,252.693,368.09z"/>
	<path d="M269.163,356.89c1.811,0,3.62-0.7,4.99-2.09c2.71-2.76,2.68-7.19-0.08-9.9c-2.75-2.72-7.18-2.68-9.9,0.07
		c-2.71,2.76-2.68,7.19,0.08,9.9C265.613,356.21,267.393,356.89,269.163,356.89z"/>
	<path d="M212.66,256.292c5.556,5.556,12.854,8.334,20.152,8.334c7.299,0,14.597-2.778,20.152-8.334c2.148-2.148,2.148-5.63,0-7.778
		c-2.146-2.147-5.631-2.147-7.777,0c-6.825,6.824-17.926,6.823-24.749,0c-2.148-2.147-5.63-2.147-7.778,0
		C210.512,250.661,210.512,254.144,212.66,256.292z"/>
</g>
<g>
</g>
<g>
</g>
<g>
</g>
<g>
</g>
<g>
</g>
<g>
</g>
<g>
</g>
<g>
</g>
<g>
</g>
<g>
</g>
<g>
</g>
<g>
</g>
<g>
</g>
<g>
</g>
<g>
</g>
</svg>
